<svg viewBox="0 0 11 11" fill="none" xmlns="http://www.w3.org/2000/svg">
<path d="M5.5 2.5391C4.7145 2.5391 3.9613 2.8511 3.4059 3.4065C2.8505 3.9619 2.5385 4.7152 2.5385 5.5006C2.5385 6.2861 2.8505 7.0393 3.4059 7.5947C3.9613 8.1501 4.7145 8.4621 5.5 8.4621C6.2854 8.4621 7.0387 8.1501 7.5941 7.5947C8.1495 7.0393 8.4615 6.2861 8.4615 5.5006C8.4615 4.7152 8.1495 3.9619 7.5941 3.4065C7.0387 2.8511 6.2854 2.5391 5.5 2.5391ZM5.5 7.4239C4.9897 7.4239 4.5004 7.2212 4.1395 6.8604C3.7787 6.4996 3.576 6.0102 3.576 5.5C3.576 4.9897 3.7787 4.5003 4.1395 4.1395C4.5004 3.7787 4.9897 3.576 5.5 3.576C6.0103 3.576 6.4996 3.7787 6.8604 4.1395C7.2213 4.5003 7.424 4.9897 7.424 5.5C7.424 6.0102 7.2213 6.4996 6.8604 6.8604C6.4996 7.2212 6.0103 7.4239 5.5 7.4239Z" fill="currentColor"/>
<path d="M8.4615 3.3837C8.9288 3.3837 9.3077 3.0049 9.3077 2.5376C9.3077 2.0702 8.9288 1.6914 8.4615 1.6914C7.9942 1.6914 7.6154 2.0702 7.6154 2.5376C7.6154 3.0049 7.9942 3.3837 8.4615 3.3837Z" fill="currentColor"/>
<path d="M10.7086 1.8943C10.5672 1.5297 10.3511 1.1986 10.0742 0.9222C9.7972 0.6458 9.4655 0.4301 9.1003 0.2891C8.6729 0.1289 8.2214 0.0422999 7.765 0.0328999C7.1768 0.00729986 6.9904 0 5.4988 0C4.0071 0 3.8159 -1.45286e-07 3.2326 0.0328999C2.7765 0.0417999 2.3253 0.1284 1.8985 0.2891C1.5332 0.43 1.2014 0.6456 0.9244 0.922C0.6474 1.1984 0.4314 1.5296 0.2901 1.8943C0.1297 2.321 0.0430997 2.7719 0.0341997 3.2275C0.00789971 3.8143 0 4.0003 0 5.4902C0 6.9796 -2.86847e-07 7.1693 0.0341997 7.7529C0.0433997 8.2091 0.1295 8.6592 0.2901 9.0868C0.4318 9.4513 0.648 9.7824 0.9251 10.0588C1.2021 10.3352 1.5339 10.5509 1.8991 10.692C2.3251 10.8586 2.7765 10.9514 3.2338 10.9665C3.822 10.9921 4.0083 11 5.5 11C6.9917 11 7.1829 11 7.7662 10.9665C8.2226 10.9572 8.6741 10.8708 9.1015 10.7109C9.4666 10.5695 9.7982 10.3537 10.0752 10.0772C10.3521 9.8007 10.5683 9.4696 10.7099 9.1051C10.8705 8.6781 10.9566 8.228 10.9658 7.7718C10.9921 7.1851 11 6.9991 11 5.5091C11 4.0192 11 3.8301 10.9658 3.2465C10.9587 2.7843 10.8717 2.3269 10.7086 1.8943ZM9.9646 7.7078C9.9607 8.0593 9.8964 8.4075 9.7747 8.7373C9.6829 8.9745 9.5425 9.1898 9.3624 9.3696C9.1823 9.5493 8.9665 9.6894 8.7289 9.7808C8.4022 9.9019 8.0572 9.966 7.7088 9.9705C7.1285 9.9973 6.9648 10.004 5.4768 10.004C3.9876 10.004 3.8355 10.004 3.2442 9.9705C2.8959 9.9662 2.5511 9.9021 2.2247 9.7808C1.9863 9.6899 1.7696 9.5501 1.5887 9.3703C1.4078 9.1906 1.2668 8.9749 1.1746 8.7373C1.0546 8.411 0.9904 8.0669 0.9847 7.7194C0.9584 7.14 0.9523 6.9765 0.9523 5.4909C0.9523 4.0045 0.9523 3.8527 0.9847 3.2617C0.9886 2.9104 1.0529 2.5624 1.1746 2.2328C1.361 1.7516 1.7427 1.3729 2.2247 1.1887C2.5512 1.068 2.896 1.0039 3.2442 0.999C3.8251 0.9728 3.9882 0.9655 5.4768 0.9655C6.9654 0.9655 7.1181 0.9655 7.7088 0.999C8.0572 1.0032 8.4023 1.0674 8.7289 1.1887C8.9665 1.2803 9.1822 1.4206 9.3623 1.6004C9.5424 1.7802 9.6829 1.9956 9.7747 2.2328C9.8947 2.5591 9.9589 2.9032 9.9646 3.2507C9.9909 3.8307 9.9976 3.9936 9.9976 5.4799C9.9976 6.9656 9.9976 7.1254 9.9713 7.7084L9.9646 7.7078Z" fill="currentColor"/>
</svg>
