<svg  viewBox="0 0 13 11" fill="none" xmlns="http://www.w3.org/2000/svg">
<path d="M4.0607 10.8155C5.0519 10.8219 6.0345 10.6254 6.9514 10.2373C7.8684 9.84913 8.7015 9.27723 9.4023 8.55463C10.1032 7.83193 10.658 6.97303 11.0344 6.02763C11.4109 5.08233 11.6015 4.06923 11.5953 3.04733V2.69033C12.1091 2.30223 12.5538 1.82533 12.9097 1.28073C12.4259 1.49883 11.914 1.64353 11.3899 1.71023C11.9455 1.36893 12.3625 0.831628 12.5635 0.197728C12.0457 0.518028 11.4778 0.743229 10.8852 0.863229C10.4862 0.424829 9.9581 0.134229 9.3827 0.0364286C8.8073 -0.0613714 8.2167 0.0390286 7.7023 0.322229C7.1878 0.605329 6.7782 1.05533 6.5368 1.60263C6.2954 2.14993 6.2357 2.76403 6.3668 3.34983C5.3141 3.29653 4.2841 3.01523 3.3438 2.52433C2.4036 2.03333 1.5741 1.34373 0.9095 0.500229C0.5744 1.09993 0.4729 1.80843 0.6254 2.48243C0.7779 3.15643 1.1732 3.74543 1.7311 4.13023C1.3195 4.11393 0.9174 3.99783 0.5575 3.79143V3.82173C0.5538 4.44843 0.7586 5.05743 1.1376 5.54733C1.5167 6.03723 2.0472 6.37843 2.6406 6.51393C2.2578 6.62013 1.8568 6.63663 1.467 6.56233C1.6388 7.09683 1.9668 7.56333 2.4059 7.89803C2.8451 8.23273 3.3739 8.41923 3.9199 8.43183C2.9864 9.20653 1.8262 9.63293 0.6279 9.64183C0.4178 9.63553 0.2082 9.61733 0 9.58733C1.2129 10.3841 2.6226 10.8041 4.0607 10.7973" fill="currentColor"/>
</svg>
