<svg viewBox="0 0 512 512" fill="none" xmlns="http://www.w3.org/2000/svg">
<path opacity="0.993" fill-rule="evenodd" clip-rule="evenodd" d="M125.5 50.5001C138.335 49.767 150.668 51.9336 162.5 57.0001C176.355 63.0929 189.688 69.9263 202.5 77.5001C246.832 66.85 291.165 66.85 335.5 77.5001C349.01 69.5776 363.01 62.4109 377.5 56.0001C388.421 51.1808 399.754 49.6808 411.5 51.5001C420.801 74.3397 421.801 97.5063 414.5 121C437.374 147.973 446.208 179.14 441 214.5C437.278 266.533 410.778 300.699 361.5 317C347.656 320.862 333.656 323.862 319.5 326C329.484 336.813 334.984 349.646 336 364.5C336.333 393.833 336.667 423.167 337 452.5C338.251 455.381 340.417 457.214 343.5 458C347.114 458.945 350.781 459.612 354.5 460C297.5 460.667 240.5 460.667 183.5 460C188.056 459.891 192.389 458.891 196.5 457C198.81 455.363 200.31 453.196 201 450.5C201.667 434.5 201.667 418.5 201 402.5C184.578 406.262 168.078 406.429 151.5 403C137.55 399.117 126.05 391.617 117 380.5C111.822 371.477 107.155 362.143 103 352.5C99.6668 347.833 96.3334 343.167 93.0001 338.5C85.3334 332.167 77.6668 325.833 70.0001 319.5C68.788 316.166 69.6213 313.666 72.5001 312C92.7707 309.715 108.937 316.882 121 333.5C139.642 366.325 166.475 375.325 201.5 360.5C203.676 347.443 209.009 335.943 217.5 326C132.032 316.921 91.5326 269.421 96.0001 183.5C98.034 159.703 107.201 139.203 123.5 122C117.339 105.211 116.172 88.0442 120 70.5001C121.739 63.7864 123.572 57.1197 125.5 50.5001Z" fill="#202020"/>
</svg>
