<svg viewBox="0 0 16 11" fill="none" xmlns="http://www.w3.org/2000/svg">
<path d="M12.1936 4.4143C11.9843 4.4135 11.7771 4.4556 11.5853 4.538C11.3934 4.6204 11.2211 4.7413 11.0794 4.893C10.9377 5.0446 10.8298 5.2238 10.7626 5.4189C10.6954 5.614 10.6704 5.8208 10.6893 6.026L10.6935 6.0714H10.7391H13.5934H13.6482H13.6773V6.0241L13.698 6.026C13.7169 5.8208 13.6919 5.614 13.6247 5.4189C13.5575 5.2238 13.4496 5.0446 13.3079 4.893C13.1662 4.7413 12.9939 4.6204 12.802 4.538C12.6101 4.4556 12.4029 4.4135 12.1936 4.4143ZM7.649 3.2357L7.6491 3.2378C7.6687 3.7008 7.5197 4.1556 7.2286 4.5207C6.9374 4.8857 6.5233 5.1371 6.0602 5.2295L6.07 5.2786L6.0688 5.3286C6.3564 5.3357 6.6397 5.3992 6.902 5.5152C7.1643 5.6312 7.4003 5.7975 7.5962 6.0042C7.7921 6.211 7.944 6.454 8.043 6.719C8.142 6.984 8.1861 7.2657 8.1728 7.5476L8.1727 7.55C8.1727 8.362 7.8172 9.0012 7.2289 9.4477C6.6394 9.8951 5.8141 10.1501 4.8763 10.1857H1V1H4.8773C5.7204 1 6.4137 1.2124 6.8952 1.5962C7.3754 1.9791 7.6491 2.5358 7.649 3.2357ZM2.7827 2.2143H2.7327V2.2643V4.75V4.8H2.7827H4.0191C4.6575 4.8 5.1244 4.6705 5.4328 4.4382C5.7434 4.2042 5.8873 3.8706 5.8873 3.4786C5.8873 3.0882 5.7556 2.77 5.5067 2.55C5.2587 2.3308 4.9001 2.2143 4.4555 2.2143H2.7827ZM2.7327 8.7929V8.8429H2.7827H4.1791H4.2373C4.9521 8.8371 5.4691 8.7223 5.8104 8.4952C6.1652 8.2592 6.3236 7.9061 6.3236 7.45C6.3236 6.9949 6.1662 6.6229 5.8643 6.3655C5.5634 6.109 5.125 5.9714 4.5718 5.9714H2.7827H2.7327V6.0214V8.7929ZM8.9564 6.3786L8.9562 6.375C8.9259 5.9487 8.9897 5.521 9.1435 5.1212C9.2972 4.7214 9.5372 4.3589 9.847 4.0586C10.1569 3.7583 10.5292 3.5273 10.9386 3.3815C11.348 3.2357 11.7847 3.1786 12.2187 3.2141L12.2227 3.1643L12.2259 3.2142C12.6598 3.1867 13.0946 3.2511 13.5009 3.4031C13.9072 3.555 14.2754 3.7909 14.5807 4.0947C14.8859 4.3985 15.1211 4.7632 15.2703 5.1639C15.4195 5.5646 15.4793 5.9921 15.4456 6.4175L15.4455 6.4214V7.0429H10.6955H10.6455V7.0929V7.29C10.6201 7.5134 10.6436 7.7395 10.7144 7.9532C10.7855 8.1679 10.9026 8.365 11.0577 8.5313C11.2128 8.6977 11.4024 8.8293 11.6136 8.9176C11.8234 9.0052 12.0498 9.0479 12.2777 9.0429C12.6002 9.0911 12.9297 9.0237 13.206 8.8527C13.4729 8.6876 13.6728 8.4366 13.7719 8.1429H15.4324C15.2711 8.7993 14.8738 9.3775 14.3123 9.7704C13.7335 10.1753 13.0217 10.3541 12.3158 10.2718L12.3159 10.2707L12.3055 10.2716C11.859 10.3119 11.4089 10.2559 10.9868 10.1075C10.5647 9.9592 10.1807 9.722 9.8618 9.4128C9.5428 9.1035 9.2965 8.7296 9.1402 8.3173C8.9838 7.9049 8.921 7.464 8.9562 7.0254L8.9564 7.0214V6.3786ZM10.0909 1.6429H14.3545V2.2571H10.0909V1.6429Z" fill="currentColor"/>
<path d="M12.1936 4.4143C11.9843 4.4135 11.7771 4.4556 11.5853 4.538C11.3934 4.6204 11.2211 4.7413 11.0794 4.893C10.9377 5.0446 10.8298 5.2238 10.7626 5.4189C10.6954 5.614 10.6704 5.8208 10.6893 6.026L10.6935 6.0714H10.7391H13.5934H13.6482H13.6773V6.0241L13.698 6.026C13.7169 5.8208 13.6919 5.614 13.6247 5.4189C13.5575 5.2238 13.4496 5.0446 13.3079 4.893C13.1662 4.7413 12.9939 4.6204 12.802 4.538C12.6101 4.4556 12.4029 4.4135 12.1936 4.4143ZM12.1936 4.4143V4.4643M7.649 3.2357L7.6491 3.2378C7.6687 3.7008 7.5197 4.1556 7.2286 4.5207C6.9374 4.8857 6.5233 5.1371 6.0602 5.2295L6.07 5.2786L6.0688 5.3286C6.3564 5.3357 6.6397 5.3992 6.902 5.5152C7.1643 5.6312 7.4003 5.7975 7.5962 6.0042C7.7921 6.211 7.944 6.454 8.043 6.719C8.142 6.984 8.1861 7.2657 8.1728 7.5476L8.1727 7.55C8.1727 8.362 7.8172 9.0012 7.2289 9.4477C6.6394 9.8951 5.8141 10.1501 4.8763 10.1857H1V1H4.8773C5.7204 1 6.4137 1.2124 6.8952 1.5962C7.3754 1.9791 7.6491 2.5358 7.649 3.2357ZM2.7827 2.2143H2.7327V2.2643V4.75V4.8H2.7827H4.0191C4.6575 4.8 5.1244 4.6705 5.4328 4.4382C5.7434 4.2042 5.8873 3.8706 5.8873 3.4786C5.8873 3.0882 5.7556 2.77 5.5067 2.55C5.2587 2.3308 4.9001 2.2143 4.4555 2.2143H2.7827ZM2.7327 8.7929V8.8429H2.7827H4.1791H4.2373C4.9521 8.8371 5.4691 8.7223 5.8104 8.4952C6.1652 8.2592 6.3236 7.9061 6.3236 7.45C6.3236 6.9949 6.1662 6.6229 5.8643 6.3655C5.5634 6.109 5.125 5.9714 4.5718 5.9714H2.7827H2.7327V6.0214V8.7929ZM8.9564 6.3786L8.9562 6.375C8.9259 5.9487 8.9897 5.521 9.1435 5.1212C9.2972 4.7214 9.5372 4.3589 9.847 4.0586C10.1569 3.7583 10.5292 3.5273 10.9386 3.3815C11.348 3.2357 11.7847 3.1786 12.2187 3.2141L12.2227 3.1643L12.2259 3.2142C12.6598 3.1867 13.0946 3.2511 13.5009 3.4031C13.9072 3.555 14.2754 3.7909 14.5807 4.0947C14.8859 4.3985 15.1211 4.7632 15.2703 5.1639C15.4195 5.5646 15.4793 5.9921 15.4456 6.4175L15.4455 6.4214V7.0429H10.6955H10.6455V7.0929V7.29C10.6201 7.5134 10.6436 7.7395 10.7144 7.9532C10.7855 8.1679 10.9026 8.365 11.0577 8.5313C11.2128 8.6977 11.4024 8.8293 11.6136 8.9176C11.8234 9.0052 12.0498 9.0479 12.2777 9.0429C12.6002 9.0911 12.9297 9.0237 13.206 8.8527C13.4729 8.6876 13.6728 8.4366 13.7719 8.1429H15.4324C15.2711 8.7993 14.8738 9.3775 14.3123 9.7704C13.7335 10.1753 13.0217 10.3541 12.3158 10.2718L12.3159 10.2707L12.3055 10.2716C11.859 10.3119 11.4089 10.2559 10.9868 10.1075C10.5647 9.9592 10.1807 9.722 9.8618 9.4128C9.5428 9.1035 9.2965 8.7296 9.1402 8.3173C8.9838 7.9049 8.921 7.464 8.9562 7.0254L8.9564 7.0214V6.3786ZM10.0909 1.6429H14.3545V2.2571H10.0909V1.6429Z" stroke="currentColor" strokeWidth="0.1"/>
</svg>
