<svg viewBox="0 0 512 512" fill="none" xmlns="http://www.w3.org/2000/svg">
<path opacity="0.986" fill-rule="evenodd" clip-rule="evenodd" d="M125.5 50.5001C140.737 48.7439 153.237 53.7439 163 65.5001C174.429 84.6876 185.096 104.354 195 124.5C202 136.167 209 147.833 216 159.5C221.923 172.22 221.923 184.886 216 197.5C213.5 201.333 210.333 204.5 206.5 207C199.122 210.792 191.455 213.792 183.5 216C177.389 221.6 176.889 227.766 182 234.5C209.833 269 241 300.167 275.5 328C282.581 334.054 289.414 333.888 296 327.5C305.006 291.375 326.173 281.875 359.5 299C387.826 314.494 415.826 330.494 443.5 347C461.55 364.286 464.384 383.786 452 405.5C440.588 420.914 427.755 435.081 413.5 448C394.035 461.093 373.035 464.093 350.5 457C208.578 400.745 109.745 301.578 53.9999 159.5C47.4814 136.097 51.4814 114.764 65.9999 95.5001C79.6271 81.2015 94.4604 68.3682 110.5 57.0001C115.367 54.226 120.367 52.0594 125.5 50.5001Z" fill="black"/>
</svg>
