<svg viewBox="0 0 512 512" fill="none" xmlns="http://www.w3.org/2000/svg">
<path opacity="0.982" fill-rule="evenodd" clip-rule="evenodd" d="M68.5 103.5C76.2792 103.068 83.9458 103.568 91.5 105C148 151.5 204.5 198 261 244.5C315.873 197.291 371.04 150.458 426.5 104C448.212 101.435 463.712 109.935 473 129.5C473.794 132.471 474.461 135.471 475 138.5C475.667 216.5 475.667 294.5 475 372.5C471.727 391.107 460.894 402.607 442.5 407C433.506 407.5 424.506 407.666 415.5 407.5C415.667 337.166 415.5 266.833 415 196.5C362.274 237.564 309.274 278.231 256 318.5C201.057 275.895 146.391 232.895 92 189.5C91.5 262.166 91.3333 334.833 91.5 407.5C83.8261 407.666 76.1594 407.5 68.5 407C51.7694 403.269 41.2694 393.103 37 376.5C36.3333 295.833 36.3333 215.167 37 134.5C41.4486 117.884 51.9486 107.55 68.5 103.5Z" fill="black"/>
</svg>
