<svg viewBox="0 0 512 512" fill="none" xmlns="http://www.w3.org/2000/svg">
<path opacity="0.992" fill-rule="evenodd" clip-rule="evenodd" d="M243.5 41.5C329.668 40.4876 395.502 76.1543 441 148.5C479 219.833 479 291.167 441 362.5C401.353 427.06 343.52 462.56 267.5 469C203.833 469.667 140.167 469.667 76.5 469C56.6913 463.84 47.8579 451.006 50 430.5C55.8372 415.157 62.5039 400.157 70 385.5C73.4048 379.417 74.0715 373.084 72 366.5C31.0392 291.933 31.3724 217.6 73 143.5C113.168 81.9859 170.002 47.9859 243.5 41.5ZM164.5 228.5C181.859 227.034 192.692 234.701 197 251.5C198.174 267.001 191.34 277.168 176.5 282C156.876 283.881 145.542 275.048 142.5 255.5C144.058 241.624 151.392 232.624 164.5 228.5ZM249.5 228.5C272.31 227.81 283.143 238.81 282 261.5C275.277 280.086 262.443 286.253 243.5 280C229.593 271.28 225.426 259.113 231 243.5C235.411 236.226 241.578 231.226 249.5 228.5ZM334.5 228.5C354.103 227.104 365.436 236.104 368.5 255.5C364.65 276.419 352.317 284.919 331.5 281C314.207 271.788 309.707 258.288 318 240.5C322.305 234.672 327.805 230.672 334.5 228.5Z" fill="black"/>
</svg>
