<svg viewBox="0 0 11 11" fill="none" xmlns="http://www.w3.org/2000/svg">
<path fill-rule="evenodd" clip-rule="evenodd" d="M5.5 0C2.4635 0 0 2.4635 0 5.5C0 8.5365 2.4635 11 5.5 11C8.5305 11 11 8.5365 11 5.5C11 2.4635 8.5305 0 5.5 0ZM9.1328 2.535C9.8099 3.3597 10.1847 4.3912 10.1947 5.4583C10.0398 5.4285 8.4888 5.1122 6.9259 5.3093C6.8897 5.2314 6.8599 5.148 6.8241 5.0646C6.7269 4.8351 6.6236 4.6083 6.5143 4.3844C8.244 3.6804 9.0315 2.6666 9.1328 2.535ZM5.5 0.8117C6.693 0.8117 7.7848 1.2586 8.6139 1.9924C8.5305 2.1115 7.8205 3.0603 6.1504 3.6864C5.3804 2.2729 4.5279 1.1151 4.3963 0.9364C4.7581 0.8519 5.1285 0.8103 5.5 0.8117ZM3.5017 1.2526C3.6268 1.4199 4.4619 2.5832 5.2433 3.9669C3.0479 4.5517 1.1092 4.5398 0.9006 4.5398C1.205 3.0841 2.1895 1.8732 3.5017 1.2526ZM0.7993 5.506V5.363C1.0024 5.3689 3.2808 5.3987 5.6256 4.6947C5.7626 4.9573 5.8878 5.2255 6.0069 5.494C5.9473 5.5119 5.8818 5.5298 5.8222 5.5477C3.4004 6.3291 2.1115 8.4645 2.0043 8.6437C1.2285 7.7827 0.7992 6.6649 0.7993 5.506ZM5.5 10.2007C4.4142 10.2007 3.4123 9.8308 2.6189 9.2107C2.7023 9.0374 3.6566 7.2 6.3053 6.2755C6.3172 6.2695 6.3236 6.2695 6.3351 6.2636C6.9974 7.9755 7.2655 9.4133 7.3375 9.8248C6.7705 10.0696 6.1504 10.2007 5.5 10.2007ZM8.1189 9.3954C8.0713 9.1089 7.8205 7.7371 7.2059 6.0486C8.6795 5.8162 9.9678 6.198 10.1292 6.2517C9.9261 7.5579 9.1745 8.6854 8.1189 9.3954Z" fill="currentColor"/>
</svg>
