<svg width="160" height="59" viewBox="0 0 160 59" fill="none" xmlns="http://www.w3.org/2000/svg">
<path d="M38.6492 9.71179C38.6492 11.5838 38.2172 13.7438 37.5692 16.4078C34.5452 31.2398 15.8972 50.7518 2.86517 58.3838C2.50517 58.3118 2.28917 58.0958 2.28917 57.7358C3.15317 57.2318 4.01717 56.6558 4.95317 56.0078C2.86517 55.0718 1.28117 52.8398 0.201172 49.7438L13.3052 8.41579L4.52117 12.3038L4.16117 11.3678L19.2812 4.45579L20.1452 4.02379C20.7932 4.45579 21.1532 5.17579 21.0092 6.25579C18.6332 19.7918 10.4252 39.6638 7.04117 53.1278C7.04117 53.5598 7.32917 53.9198 7.68917 54.0638C20.4332 44.4158 34.4732 27.4958 35.8412 13.6718C33.6812 10.7918 30.0812 7.76779 27.0572 8.19979C27.0572 7.55179 31.9532 2.36779 32.3852 2.36779C34.8332 2.36779 38.6492 4.67178 38.6492 9.71179Z" fill="#14CF93"/>
<path d="M48.6099 12.0878C49.9779 12.4478 51.7059 12.7358 52.7859 13.0238C53.0019 10.1438 54.5139 6.68779 55.3779 4.59979L55.1619 4.45579L49.4739 6.32778C48.4659 7.19179 47.7459 10.3598 48.6099 12.0878ZM33.5619 51.6878L42.0579 23.5358L36.0099 25.3358L35.8659 24.9038L48.3219 20.7998L49.1139 20.9438L39.1779 54.0638L46.5939 50.3198L46.8099 50.7518L37.4499 56.0798C35.7219 54.7838 34.8579 53.8478 33.5619 51.6878Z" fill="#14CF93"/>
<path d="M49.3772 47.5838C51.0332 50.1038 54.4172 51.6878 56.8652 51.9758C59.8172 51.9758 62.8412 50.6798 64.3532 48.5918C65.0732 42.7598 52.9052 38.9438 53.8412 30.9518C54.5612 25.4798 61.6172 18.8558 67.3772 18.8558C70.1132 18.8558 73.1372 19.1438 74.0012 20.7998L72.5612 25.4078H72.0572C69.6812 23.4638 66.5852 21.1598 64.9292 21.1598C61.4732 21.1598 59.4572 22.9598 57.6572 24.9758C57.6572 31.9598 68.4572 37.6478 68.0972 40.7438C67.0892 48.5918 61.1852 53.7038 53.4092 55.5038C50.9612 56.0798 45.6332 53.6318 45.5612 50.8958L49.3772 47.5838Z" fill="#14CF93"/>
<path d="M71.3214 50.3918C71.3214 46.0718 79.7454 24.3998 79.8894 22.0958L73.0494 25.5518L72.7614 25.1198L81.9054 20.2238C83.7054 20.9438 85.0014 22.1678 86.0814 23.8238C86.0814 27.9998 77.7294 47.8718 77.7294 50.3918C77.7294 51.6158 78.3054 52.2638 79.6014 52.5518C80.1054 52.4798 91.8414 35.1998 97.3854 23.1038L98.0334 21.5918L105.377 21.0878L95.6574 52.3358L102.641 49.5998L102.713 50.0318L89.2494 56.0798C88.8894 55.7918 88.2414 55.2158 88.0974 54.7838L98.2494 23.1038H98.0334C92.4894 35.6318 81.5454 55.6478 76.7214 56.0798C73.1214 54.5678 71.3214 53.7038 71.3214 50.3918Z" fill="#14CF93"/>
<path d="M103.553 46.2158C103.553 34.4798 120.761 20.3678 125.945 20.0798C128.681 19.7198 133.649 21.5198 136.097 22.7438L127.169 52.4798L134.441 49.4558V50.0318L120.761 56.0798C120.401 55.7918 119.753 55.2158 119.609 54.7838L128.321 26.4878H128.105C125.873 32.1038 113.417 51.1838 110.177 55.5038C106.073 54.7838 103.553 49.9598 103.553 46.2158ZM110.537 45.3518C110.537 47.7998 111.113 49.5278 112.553 49.7438C113.129 49.5278 125.297 31.7438 127.385 26.4878L128.177 24.9758C126.233 23.8238 123.857 22.8878 121.265 23.1758C117.809 23.1758 110.537 39.2318 110.537 45.3518Z" fill="#14CF93"/>
<path d="M137.206 52.3358L152.326 3.66378L144.694 6.39979L144.478 5.82379L158.806 0.279785L159.67 1.35978L143.542 53.9198L150.958 50.6798L151.102 51.1118L141.166 56.0798C139.726 55.6478 138.646 54.3518 137.206 52.3358Z" fill="#14CF93"/>
</svg>
