<svg viewBox="0 0 36 36" fill="none" xmlns="http://www.w3.org/2000/svg">
<path d="M6.98389 7.09649C9.79317 4.25827 13.6915 2.5 18.0004 2.5C22.3093 2.5 26.2076 4.25827 29.0169 7.09649L30.7938 5.33786C27.5314 2.04186 23.0043 0 18.0004 0C12.9965 0 8.46943 2.04186 5.20703 5.33785L6.98389 7.09649Z" fill="white"/>
<path d="M6.98389 28.9035L5.20703 30.6621C8.46943 33.9581 12.9965 36 18.0004 36C23.0043 36 27.5314 33.9581 30.7938 30.6621L29.0169 28.9035C26.2076 31.7417 22.3093 33.5 18.0004 33.5C13.6915 33.5 9.79317 31.7417 6.98389 28.9035Z" fill="white"/>
</svg>
